<svg width="62" height="61" viewBox="0 0 62 61" fill="none" xmlns="http://www.w3.org/2000/svg">
    <path d="M38.0252 0.0712242C37.2755 0.139374 32.8459 0.514193 28.2117 0.889009C18.3642 1.7068 14.8546 2.11569 14.0709 2.55866C13.5938 2.83125 13.6279 2.8994 14.3435 3.06977C14.8205 3.172 16.4901 3.34237 18.0916 3.44459C21.465 3.71719 22.1806 4.02386 22.1806 5.18239C22.1806 5.9661 19.3524 13.8714 14.8886 25.3885C13.8323 28.1145 13.0146 30.3634 13.0827 30.3975C13.219 30.5338 21.2606 26.4108 21.8739 25.8996C22.1806 25.627 24.3954 20.4477 26.8147 14.3825L31.2103 3.34237L34.4474 3.06977C36.2192 2.8994 40.9215 2.7631 44.8401 2.7631C51.4846 2.7631 52.0979 2.83125 53.5972 3.51274C56.5617 4.87572 57.2432 7.36315 56.0505 12.5084C55.7439 13.8373 55.5735 14.9958 55.6757 15.064C55.9824 15.3706 58.2313 10.941 58.9469 8.55576C60.2758 4.29645 59.2195 1.87717 55.5394 0.718637C54.1083 0.241596 52.1661 0.105299 46.5438 0.0371494C42.6252 -0.0309982 38.7748 0.00307465 38.0252 0.0712242Z" fill="#8B4A2E"/>
    <path d="M50.6668 23.6848C50.5646 23.8552 49.6787 24.2641 48.6905 24.6048C47.1231 25.1841 46.0327 25.2522 40.2401 25.15C36.5941 25.1159 32.5392 25.2181 31.2103 25.4226C24.634 26.4107 14.6502 31.1812 6.67675 37.1783C1.63374 40.9605 -2.59149 45.1858 1.90633 41.9146C7.11972 38.1664 13.3213 34.759 19.2161 32.4419C25.6903 29.9204 29.6429 29.1708 36.8326 29.1367C42.4549 29.1367 45.8623 28.4211 48.4861 26.7515C50.0876 25.7293 51.4846 24.2981 51.4846 23.6848C51.4846 23.2759 50.9053 23.2759 50.6668 23.6848Z" fill="#8B4A2E"/>
    <path d="M16.0472 35.202C12.1627 36.8716 10.5953 37.8257 10.5953 38.5072C10.5953 39.5976 4.73448 55.2718 4.05299 55.9874C3.64409 56.3963 2.62186 56.9755 1.77 57.214C-0.206316 57.8274 0.202577 57.9637 5.31374 58.4407C7.56265 58.6792 11.856 59.1563 14.8546 59.5311C17.8531 59.8718 23.6117 60.2807 27.6325 60.417C35.5378 60.6215 39.6608 60.2807 42.9319 59.1222C50.2238 56.5666 56.8343 48.8317 60.821 38.2346C61.741 35.7812 61.4343 34.8612 60.378 36.9057C57.9587 41.6761 50.2238 49.5814 44.8741 52.8184C40.4445 55.5103 32.1985 57.4526 25.4176 57.4526C21.4309 57.4526 15.1612 56.6007 14.139 55.9192C12.5716 54.897 12.8783 53.5681 18.6368 38.0301C20.2043 33.8049 20.2724 33.6005 19.9317 33.6345C19.7613 33.6345 18.0235 34.3501 16.0472 35.202Z" fill="#8B4A2E"/>
</svg>
