<svg width="24" height="24" viewBox="0 0 24 24" fill="none" xmlns="http://www.w3.org/2000/svg">
  <path d="M12 4.5C9.92893 4.5 8.25 6.17893 8.25 8.25V10.3575C8.25 11.23 8.01 12.0863 7.55625 12.8313L6.375 14.8125C5.97631 15.4837 6.45927 16.3125 7.2375 16.3125H16.7625C17.5407 16.3125 18.0237 15.4837 17.625 14.8125L16.4438 12.8313C15.99 12.0863 15.75 11.23 15.75 10.3575V8.25C15.75 6.17893 14.0711 4.5 12 4.5Z" stroke="#667085" stroke-width="1.8" stroke-linejoin="round"/>
  <path d="M10.125 18.375C10.4296 19.0214 11.0857 19.5 12 19.5C12.9143 19.5 13.5704 19.0214 13.875 18.375" stroke="#667085" stroke-width="1.8" stroke-linecap="round"/>
</svg>
