<svg width="27" height="27" viewBox="0 0 27 27" fill="none" xmlns="http://www.w3.org/2000/svg">
<path d="M5.7041 8.99985C6.69426 7.28306 8.22339 5.94111 10.0542 5.18225C11.885 4.42339 13.9151 4.29005 15.8295 4.80294C17.7438 5.31582 19.4353 6.44624 20.6415 8.01877C21.8477 9.5913 22.5011 11.518 22.5004 13.4998" stroke="#4B5563" stroke-width="2.25" stroke-linecap="round" stroke-linejoin="round"/>
<path d="M21.2963 18C20.3061 19.7168 18.777 21.0587 16.9461 21.8176C15.1153 22.5765 13.0852 22.7098 11.1709 22.1969C9.25655 21.684 7.56503 20.5536 6.35884 18.9811C5.15264 17.4085 4.49923 15.4819 4.5 13.5" stroke="#4B5563" stroke-width="2.25" stroke-linecap="round" stroke-linejoin="round"/>
<path d="M5.625 3.375V9H11.25" stroke="#4B5563" stroke-width="2.25" stroke-linecap="round" stroke-linejoin="round"/>
<path d="M21.375 23.625V18H15.75" stroke="#4B5563" stroke-width="2.25" stroke-linecap="round" stroke-linejoin="round"/>
</svg>
